<mxfile host="Electron" modified="2024-05-09T06:14:35.987Z" agent="Mozilla/5.0 (Macintosh; Intel Mac OS X 10_15_7) AppleWebKit/537.36 (KHTML, like Gecko) draw.io/24.2.5 Chrome/120.0.6099.109 Electron/28.1.0 Safari/537.36" etag="KeyX5TcfzjB6pimhQ5s5" version="24.2.5" type="device">
  <diagram name="Page-1" id="90a13364-a465-7bf4-72fc-28e22215d7a0">
    <mxGraphModel dx="2891" dy="2009" grid="1" gridSize="10" guides="1" tooltips="1" connect="1" arrows="1" fold="1" page="1" pageScale="1.5" pageWidth="1169" pageHeight="826" background="none" math="0" shadow="0">
      <root>
        <mxCell id="0" style=";html=1;" />
        <mxCell id="1" style=";html=1;" parent="0" />
        <mxCell id="8JsGSesCkg5EEvxzLTyf-170" value="" style="rounded=1;whiteSpace=wrap;html=1;fillColor=none;dashed=1;strokeWidth=1;glass=0;shadow=0;align=right;perimeterSpacing=0;" vertex="1" parent="1">
          <mxGeometry x="1540" y="860" width="250" height="590" as="geometry" />
        </mxCell>
        <mxCell id="8JsGSesCkg5EEvxzLTyf-123" value="" style="rounded=1;whiteSpace=wrap;html=1;fillColor=none;dashed=1;strokeWidth=1;glass=0;shadow=0;align=right;perimeterSpacing=0;" vertex="1" parent="1">
          <mxGeometry x="1360" y="510" width="620" height="260" as="geometry" />
        </mxCell>
        <mxCell id="8JsGSesCkg5EEvxzLTyf-79" value="" style="rounded=1;whiteSpace=wrap;html=1;fillColor=none;dashed=1;strokeWidth=1;glass=0;shadow=0;" vertex="1" parent="1">
          <mxGeometry x="660" y="660" width="630" height="380" as="geometry" />
        </mxCell>
        <mxCell id="8JsGSesCkg5EEvxzLTyf-78" value="" style="rounded=1;whiteSpace=wrap;html=1;fillColor=none;dashed=1;strokeWidth=1;glass=0;shadow=0;align=right;perimeterSpacing=0;" vertex="1" parent="1">
          <mxGeometry x="660" y="230" width="630" height="380" as="geometry" />
        </mxCell>
        <mxCell id="8JsGSesCkg5EEvxzLTyf-1" value="" style="verticalLabelPosition=bottom;shadow=0;dashed=0;align=center;html=1;verticalAlign=top;shape=mxgraph.electrical.abstract.dac;rotation=-180;" vertex="1" parent="1">
          <mxGeometry x="470" y="600" width="90" height="79" as="geometry" />
        </mxCell>
        <mxCell id="8JsGSesCkg5EEvxzLTyf-2" value="" style="pointerEvents=1;verticalLabelPosition=bottom;shadow=0;dashed=0;align=center;html=1;verticalAlign=top;shape=mxgraph.electrical.signal_sources.source;aspect=fixed;points=[[0.5,0,0],[1,0.5,0],[0.5,1,0],[0,0.5,0]];elSignalType=ac;" vertex="1" parent="1">
          <mxGeometry x="690" y="410" width="60" height="60" as="geometry" />
        </mxCell>
        <mxCell id="8JsGSesCkg5EEvxzLTyf-3" value="" style="verticalLabelPosition=bottom;shadow=0;dashed=0;align=center;html=1;verticalAlign=top;shape=mxgraph.electrical.abstract.multiplier;" vertex="1" parent="1">
          <mxGeometry x="695" y="534.5" width="50" height="50" as="geometry" />
        </mxCell>
        <mxCell id="8JsGSesCkg5EEvxzLTyf-5" value="90Â°" style="whiteSpace=wrap;html=1;aspect=fixed;" vertex="1" parent="1">
          <mxGeometry x="700" y="350" width="40" height="40" as="geometry" />
        </mxCell>
        <mxCell id="8JsGSesCkg5EEvxzLTyf-6" value="" style="verticalLabelPosition=bottom;shadow=0;dashed=0;align=center;html=1;verticalAlign=top;shape=mxgraph.electrical.abstract.multiplier;" vertex="1" parent="1">
          <mxGeometry x="695" y="260" width="50" height="50" as="geometry" />
        </mxCell>
        <mxCell id="8JsGSesCkg5EEvxzLTyf-8" value="" style="verticalLabelPosition=bottom;shadow=0;dashed=0;align=center;html=1;verticalAlign=top;shape=mxgraph.electrical.abstract.integrator;" vertex="1" parent="1">
          <mxGeometry x="802" y="534.5" width="50" height="50" as="geometry" />
        </mxCell>
        <mxCell id="8JsGSesCkg5EEvxzLTyf-9" value="" style="verticalLabelPosition=bottom;shadow=0;dashed=0;align=center;html=1;verticalAlign=top;shape=mxgraph.electrical.abstract.integrator;" vertex="1" parent="1">
          <mxGeometry x="800" y="260" width="50" height="50" as="geometry" />
        </mxCell>
        <mxCell id="8JsGSesCkg5EEvxzLTyf-10" value="" style="html=1;shape=mxgraph.electrical.electro-mechanical.switchDisconnector;aspect=fixed;elSwitchState=off;" vertex="1" parent="1">
          <mxGeometry x="965" y="423" width="75" height="20" as="geometry" />
        </mxCell>
        <mxCell id="8JsGSesCkg5EEvxzLTyf-11" value="" style="html=1;shape=mxgraph.electrical.electro-mechanical.switchDisconnector;aspect=fixed;elSwitchState=off;" vertex="1" parent="1">
          <mxGeometry x="880" y="542.5" width="75" height="20" as="geometry" />
        </mxCell>
        <mxCell id="8JsGSesCkg5EEvxzLTyf-12" value="" style="html=1;shape=mxgraph.electrical.electro-mechanical.switchDisconnector;aspect=fixed;elSwitchState=off;" vertex="1" parent="1">
          <mxGeometry x="880" y="268" width="75" height="20" as="geometry" />
        </mxCell>
        <mxCell id="8JsGSesCkg5EEvxzLTyf-13" value="T" style="whiteSpace=wrap;html=1;aspect=fixed;" vertex="1" parent="1">
          <mxGeometry x="1000" y="265" width="40" height="40" as="geometry" />
        </mxCell>
        <mxCell id="8JsGSesCkg5EEvxzLTyf-14" value="" style="verticalLabelPosition=bottom;shadow=0;dashed=0;align=center;html=1;verticalAlign=top;shape=mxgraph.electrical.abstract.multiplier;" vertex="1" parent="1">
          <mxGeometry x="1100" y="415" width="50" height="50" as="geometry" />
        </mxCell>
        <mxCell id="8JsGSesCkg5EEvxzLTyf-15" value="" style="verticalLabelPosition=bottom;shadow=0;dashed=0;align=center;html=1;verticalAlign=top;shape=mxgraph.electrical.abstract.quantizer;" vertex="1" parent="1">
          <mxGeometry x="1200" y="417" width="52" height="46" as="geometry" />
        </mxCell>
        <mxCell id="8JsGSesCkg5EEvxzLTyf-94" value="" style="edgeStyle=none;curved=1;rounded=0;orthogonalLoop=1;jettySize=auto;html=1;fontSize=12;startSize=8;endSize=8;" edge="1" parent="1" source="8JsGSesCkg5EEvxzLTyf-16" target="8JsGSesCkg5EEvxzLTyf-15">
          <mxGeometry relative="1" as="geometry" />
        </mxCell>
        <mxCell id="8JsGSesCkg5EEvxzLTyf-16" value="T" style="whiteSpace=wrap;html=1;aspect=fixed;" vertex="1" parent="1">
          <mxGeometry x="1206" y="490" width="40" height="40" as="geometry" />
        </mxCell>
        <mxCell id="8JsGSesCkg5EEvxzLTyf-17" value="" style="verticalLabelPosition=bottom;shadow=0;dashed=0;align=center;html=1;verticalAlign=top;shape=mxgraph.electrical.abstract.summation_point;" vertex="1" parent="1">
          <mxGeometry x="1645" y="534.5" width="50" height="50" as="geometry" />
        </mxCell>
        <mxCell id="8JsGSesCkg5EEvxzLTyf-18" value="" style="verticalLabelPosition=bottom;shadow=0;dashed=0;align=center;html=1;verticalAlign=top;shape=mxgraph.electrical.abstract.summation_point;" vertex="1" parent="1">
          <mxGeometry x="1765" y="534.5" width="50" height="50" as="geometry" />
        </mxCell>
        <mxCell id="8JsGSesCkg5EEvxzLTyf-19" value="" style="endArrow=classic;html=1;rounded=0;fontSize=12;startSize=8;endSize=8;curved=1;" edge="1" parent="1" source="8JsGSesCkg5EEvxzLTyf-2" target="8JsGSesCkg5EEvxzLTyf-5">
          <mxGeometry width="50" height="50" relative="1" as="geometry">
            <mxPoint x="950" y="580" as="sourcePoint" />
            <mxPoint x="1000" y="530" as="targetPoint" />
          </mxGeometry>
        </mxCell>
        <mxCell id="8JsGSesCkg5EEvxzLTyf-20" value="" style="endArrow=classic;html=1;rounded=0;fontSize=12;startSize=8;endSize=8;curved=1;" edge="1" parent="1" source="8JsGSesCkg5EEvxzLTyf-5" target="8JsGSesCkg5EEvxzLTyf-6">
          <mxGeometry width="50" height="50" relative="1" as="geometry">
            <mxPoint x="950" y="580" as="sourcePoint" />
            <mxPoint x="720" y="330" as="targetPoint" />
            <Array as="points" />
          </mxGeometry>
        </mxCell>
        <mxCell id="8JsGSesCkg5EEvxzLTyf-132" value="SIN_F1" style="edgeLabel;html=1;align=center;verticalAlign=middle;resizable=0;points=[];fontSize=12;" vertex="1" connectable="0" parent="8JsGSesCkg5EEvxzLTyf-20">
          <mxGeometry x="-0.2" relative="1" as="geometry">
            <mxPoint as="offset" />
          </mxGeometry>
        </mxCell>
        <mxCell id="8JsGSesCkg5EEvxzLTyf-21" value="" style="endArrow=classic;html=1;rounded=0;fontSize=12;startSize=8;endSize=8;curved=1;exitX=0.5;exitY=1;exitDx=0;exitDy=0;exitPerimeter=0;entryX=0.5;entryY=0;entryDx=0;entryDy=0;entryPerimeter=0;" edge="1" parent="1" source="8JsGSesCkg5EEvxzLTyf-2" target="8JsGSesCkg5EEvxzLTyf-3">
          <mxGeometry width="50" height="50" relative="1" as="geometry">
            <mxPoint x="950" y="580" as="sourcePoint" />
            <mxPoint x="1000" y="530" as="targetPoint" />
          </mxGeometry>
        </mxCell>
        <mxCell id="8JsGSesCkg5EEvxzLTyf-129" value="COS_F1" style="edgeLabel;html=1;align=center;verticalAlign=middle;resizable=0;points=[];fontSize=12;" vertex="1" connectable="0" parent="8JsGSesCkg5EEvxzLTyf-21">
          <mxGeometry x="0.0026" y="1" relative="1" as="geometry">
            <mxPoint as="offset" />
          </mxGeometry>
        </mxCell>
        <mxCell id="8JsGSesCkg5EEvxzLTyf-22" value="" style="endArrow=classic;html=1;rounded=0;fontSize=12;startSize=8;endSize=8;curved=1;exitX=0;exitY=0.5;exitDx=0;exitDy=0;exitPerimeter=0;" edge="1" parent="1" source="8JsGSesCkg5EEvxzLTyf-36" target="8JsGSesCkg5EEvxzLTyf-2">
          <mxGeometry width="50" height="50" relative="1" as="geometry">
            <mxPoint x="800" y="440" as="sourcePoint" />
            <mxPoint x="1000" y="530" as="targetPoint" />
          </mxGeometry>
        </mxCell>
        <mxCell id="8JsGSesCkg5EEvxzLTyf-23" value="" style="endArrow=classic;html=1;rounded=0;fontSize=12;startSize=8;endSize=8;curved=1;" edge="1" parent="1" source="8JsGSesCkg5EEvxzLTyf-3" target="8JsGSesCkg5EEvxzLTyf-8">
          <mxGeometry width="50" height="50" relative="1" as="geometry">
            <mxPoint x="950" y="580" as="sourcePoint" />
            <mxPoint x="1000" y="530" as="targetPoint" />
          </mxGeometry>
        </mxCell>
        <mxCell id="8JsGSesCkg5EEvxzLTyf-24" value="" style="endArrow=classic;html=1;rounded=0;fontSize=12;startSize=8;endSize=8;curved=1;entryX=0;entryY=0.5;entryDx=0;entryDy=0;entryPerimeter=0;exitX=1;exitY=0.5;exitDx=0;exitDy=0;exitPerimeter=0;" edge="1" parent="1" source="8JsGSesCkg5EEvxzLTyf-6" target="8JsGSesCkg5EEvxzLTyf-9">
          <mxGeometry width="50" height="50" relative="1" as="geometry">
            <mxPoint x="740" y="285" as="sourcePoint" />
            <mxPoint x="787" y="284.5" as="targetPoint" />
          </mxGeometry>
        </mxCell>
        <mxCell id="8JsGSesCkg5EEvxzLTyf-25" value="" style="endArrow=none;html=1;rounded=0;fontSize=12;startSize=8;endSize=8;curved=1;entryX=0;entryY=0.84;entryDx=0;entryDy=0;endFill=0;" edge="1" parent="1" source="8JsGSesCkg5EEvxzLTyf-9" target="8JsGSesCkg5EEvxzLTyf-12">
          <mxGeometry width="50" height="50" relative="1" as="geometry">
            <mxPoint x="950" y="580" as="sourcePoint" />
            <mxPoint x="1000" y="530" as="targetPoint" />
          </mxGeometry>
        </mxCell>
        <mxCell id="8JsGSesCkg5EEvxzLTyf-26" value="" style="endArrow=classic;html=1;rounded=0;fontSize=12;startSize=8;endSize=8;curved=1;exitX=1;exitY=0.84;exitDx=0;exitDy=0;" edge="1" parent="1" source="8JsGSesCkg5EEvxzLTyf-12" target="8JsGSesCkg5EEvxzLTyf-13">
          <mxGeometry width="50" height="50" relative="1" as="geometry">
            <mxPoint x="950" y="580" as="sourcePoint" />
            <mxPoint x="1000" y="530" as="targetPoint" />
          </mxGeometry>
        </mxCell>
        <mxCell id="8JsGSesCkg5EEvxzLTyf-27" value="" style="endArrow=classic;html=1;rounded=0;fontSize=12;startSize=8;endSize=8;curved=1;exitX=0;exitY=0.84;exitDx=0;exitDy=0;entryX=1;entryY=0.5;entryDx=0;entryDy=0;entryPerimeter=0;" edge="1" parent="1" source="8JsGSesCkg5EEvxzLTyf-10" target="8JsGSesCkg5EEvxzLTyf-36">
          <mxGeometry width="50" height="50" relative="1" as="geometry">
            <mxPoint x="950" y="580" as="sourcePoint" />
            <mxPoint x="852" y="440" as="targetPoint" />
          </mxGeometry>
        </mxCell>
        <mxCell id="8JsGSesCkg5EEvxzLTyf-28" value="" style="endArrow=none;html=1;rounded=0;fontSize=12;startSize=8;endSize=8;curved=1;exitX=1;exitY=0.5;exitDx=0;exitDy=0;exitPerimeter=0;entryX=0;entryY=0.84;entryDx=0;entryDy=0;endFill=0;" edge="1" parent="1" source="8JsGSesCkg5EEvxzLTyf-8" target="8JsGSesCkg5EEvxzLTyf-11">
          <mxGeometry width="50" height="50" relative="1" as="geometry">
            <mxPoint x="950" y="580" as="sourcePoint" />
            <mxPoint x="1000" y="530" as="targetPoint" />
          </mxGeometry>
        </mxCell>
        <mxCell id="8JsGSesCkg5EEvxzLTyf-29" value="" style="endArrow=classic;html=1;rounded=0;fontSize=12;startSize=8;endSize=8;curved=1;exitX=1;exitY=0.84;exitDx=0;exitDy=0;entryX=0;entryY=0.5;entryDx=0;entryDy=0;" edge="1" parent="1" source="8JsGSesCkg5EEvxzLTyf-11" target="8JsGSesCkg5EEvxzLTyf-92">
          <mxGeometry width="50" height="50" relative="1" as="geometry">
            <mxPoint x="950" y="580" as="sourcePoint" />
            <mxPoint x="1000" y="530" as="targetPoint" />
          </mxGeometry>
        </mxCell>
        <mxCell id="8JsGSesCkg5EEvxzLTyf-30" value="" style="endArrow=none;html=1;rounded=0;fontSize=12;startSize=8;endSize=8;curved=1;exitX=0;exitY=0.5;exitDx=0;exitDy=0;exitPerimeter=0;entryX=1;entryY=0.84;entryDx=0;entryDy=0;endFill=0;" edge="1" parent="1" source="8JsGSesCkg5EEvxzLTyf-14" target="8JsGSesCkg5EEvxzLTyf-10">
          <mxGeometry width="50" height="50" relative="1" as="geometry">
            <mxPoint x="950" y="580" as="sourcePoint" />
            <mxPoint x="1000" y="530" as="targetPoint" />
          </mxGeometry>
        </mxCell>
        <mxCell id="8JsGSesCkg5EEvxzLTyf-31" value="" style="endArrow=classic;html=1;rounded=0;fontSize=12;startSize=8;endSize=8;curved=1;entryX=1;entryY=0.5;entryDx=0;entryDy=0;entryPerimeter=0;" edge="1" parent="1" source="8JsGSesCkg5EEvxzLTyf-15" target="8JsGSesCkg5EEvxzLTyf-14">
          <mxGeometry width="50" height="50" relative="1" as="geometry">
            <mxPoint x="950" y="580" as="sourcePoint" />
            <mxPoint x="1000" y="530" as="targetPoint" />
          </mxGeometry>
        </mxCell>
        <mxCell id="8JsGSesCkg5EEvxzLTyf-33" value="" style="endArrow=classic;html=1;rounded=0;fontSize=12;startSize=8;endSize=8;curved=1;entryX=0;entryY=0.5;entryDx=0;entryDy=0;entryPerimeter=0;exitX=1;exitY=0.5;exitDx=0;exitDy=0;exitPerimeter=0;" edge="1" parent="1" source="8JsGSesCkg5EEvxzLTyf-17" target="8JsGSesCkg5EEvxzLTyf-18">
          <mxGeometry width="50" height="50" relative="1" as="geometry">
            <mxPoint x="1315" y="580" as="sourcePoint" />
            <mxPoint x="1365" y="530" as="targetPoint" />
          </mxGeometry>
        </mxCell>
        <mxCell id="8JsGSesCkg5EEvxzLTyf-35" value="" style="edgeStyle=segmentEdgeStyle;endArrow=classic;html=1;curved=0;rounded=0;endSize=8;startSize=8;fontSize=12;exitX=1;exitY=0.5;exitDx=0;exitDy=0;entryX=0.5;entryY=0;entryDx=0;entryDy=0;entryPerimeter=0;" edge="1" parent="1" source="8JsGSesCkg5EEvxzLTyf-13" target="8JsGSesCkg5EEvxzLTyf-14">
          <mxGeometry width="50" height="50" relative="1" as="geometry">
            <mxPoint x="1050" y="340" as="sourcePoint" />
            <mxPoint x="1000" y="530" as="targetPoint" />
          </mxGeometry>
        </mxCell>
        <mxCell id="8JsGSesCkg5EEvxzLTyf-36" value="" style="verticalLabelPosition=bottom;shadow=0;dashed=0;align=center;html=1;verticalAlign=top;shape=mxgraph.electrical.abstract.filter;" vertex="1" parent="1">
          <mxGeometry x="801" y="417" width="52" height="46" as="geometry" />
        </mxCell>
        <mxCell id="8JsGSesCkg5EEvxzLTyf-37" value="" style="verticalLabelPosition=bottom;shadow=0;dashed=0;align=center;html=1;verticalAlign=top;shape=mxgraph.electrical.abstract.quantizer;" vertex="1" parent="1">
          <mxGeometry x="1885" y="536.5" width="52" height="46" as="geometry" />
        </mxCell>
        <mxCell id="8JsGSesCkg5EEvxzLTyf-38" value="" style="endArrow=classic;html=1;rounded=0;fontSize=12;startSize=8;endSize=8;curved=1;entryX=0;entryY=0.5;entryDx=0;entryDy=0;entryPerimeter=0;exitX=1;exitY=0.5;exitDx=0;exitDy=0;exitPerimeter=0;" edge="1" parent="1" source="8JsGSesCkg5EEvxzLTyf-18" target="8JsGSesCkg5EEvxzLTyf-37">
          <mxGeometry width="50" height="50" relative="1" as="geometry">
            <mxPoint x="1625" y="630" as="sourcePoint" />
            <mxPoint x="1675" y="580" as="targetPoint" />
          </mxGeometry>
        </mxCell>
        <mxCell id="8JsGSesCkg5EEvxzLTyf-40" value="" style="verticalLabelPosition=bottom;shadow=0;dashed=0;align=center;html=1;verticalAlign=top;shape=mxgraph.electrical.abstract.multiplier;" vertex="1" parent="1">
          <mxGeometry x="695" y="690" width="50" height="50" as="geometry" />
        </mxCell>
        <mxCell id="8JsGSesCkg5EEvxzLTyf-41" value="" style="verticalLabelPosition=bottom;shadow=0;dashed=0;align=center;html=1;verticalAlign=top;shape=mxgraph.electrical.abstract.integrator;" vertex="1" parent="1">
          <mxGeometry x="802" y="690" width="50" height="50" as="geometry" />
        </mxCell>
        <mxCell id="8JsGSesCkg5EEvxzLTyf-42" value="" style="html=1;shape=mxgraph.electrical.electro-mechanical.switchDisconnector;aspect=fixed;elSwitchState=off;" vertex="1" parent="1">
          <mxGeometry x="880" y="698" width="75" height="20" as="geometry" />
        </mxCell>
        <mxCell id="8JsGSesCkg5EEvxzLTyf-43" value="T" style="whiteSpace=wrap;html=1;aspect=fixed;" vertex="1" parent="1">
          <mxGeometry x="1206" y="740" width="40" height="40" as="geometry" />
        </mxCell>
        <mxCell id="8JsGSesCkg5EEvxzLTyf-45" value="" style="endArrow=classic;html=1;rounded=0;fontSize=12;startSize=8;endSize=8;curved=1;" edge="1" parent="1" source="8JsGSesCkg5EEvxzLTyf-40" target="8JsGSesCkg5EEvxzLTyf-41">
          <mxGeometry width="50" height="50" relative="1" as="geometry">
            <mxPoint x="950" y="735.5" as="sourcePoint" />
            <mxPoint x="1000" y="685.5" as="targetPoint" />
          </mxGeometry>
        </mxCell>
        <mxCell id="8JsGSesCkg5EEvxzLTyf-46" value="" style="endArrow=none;html=1;rounded=0;fontSize=12;startSize=8;endSize=8;curved=1;exitX=1;exitY=0.5;exitDx=0;exitDy=0;exitPerimeter=0;entryX=0;entryY=0.84;entryDx=0;entryDy=0;endFill=0;" edge="1" parent="1" source="8JsGSesCkg5EEvxzLTyf-41" target="8JsGSesCkg5EEvxzLTyf-42">
          <mxGeometry width="50" height="50" relative="1" as="geometry">
            <mxPoint x="950" y="735.5" as="sourcePoint" />
            <mxPoint x="1000" y="685.5" as="targetPoint" />
          </mxGeometry>
        </mxCell>
        <mxCell id="8JsGSesCkg5EEvxzLTyf-51" value="" style="edgeStyle=segmentEdgeStyle;endArrow=classic;html=1;curved=0;rounded=0;endSize=8;startSize=8;fontSize=12;entryX=0.5;entryY=1;entryDx=0;entryDy=0;entryPerimeter=0;" edge="1" parent="1" source="8JsGSesCkg5EEvxzLTyf-78" target="8JsGSesCkg5EEvxzLTyf-15">
          <mxGeometry width="50" height="50" relative="1" as="geometry">
            <mxPoint x="1170" y="530" as="sourcePoint" />
            <mxPoint x="1220" y="480" as="targetPoint" />
          </mxGeometry>
        </mxCell>
        <mxCell id="8JsGSesCkg5EEvxzLTyf-53" value="" style="pointerEvents=1;verticalLabelPosition=bottom;shadow=0;dashed=0;align=center;html=1;verticalAlign=top;shape=mxgraph.electrical.signal_sources.source;aspect=fixed;points=[[0.5,0,0],[1,0.5,0],[0.5,1,0],[0,0.5,0]];elSignalType=ac;" vertex="1" parent="1">
          <mxGeometry x="690" y="800" width="60" height="60" as="geometry" />
        </mxCell>
        <mxCell id="8JsGSesCkg5EEvxzLTyf-54" value="" style="html=1;shape=mxgraph.electrical.electro-mechanical.switchDisconnector;aspect=fixed;elSwitchState=off;" vertex="1" parent="1">
          <mxGeometry x="965" y="813" width="75" height="20" as="geometry" />
        </mxCell>
        <mxCell id="8JsGSesCkg5EEvxzLTyf-55" value="" style="verticalLabelPosition=bottom;shadow=0;dashed=0;align=center;html=1;verticalAlign=top;shape=mxgraph.electrical.abstract.multiplier;" vertex="1" parent="1">
          <mxGeometry x="1100" y="805" width="50" height="50" as="geometry" />
        </mxCell>
        <mxCell id="8JsGSesCkg5EEvxzLTyf-56" value="" style="verticalLabelPosition=bottom;shadow=0;dashed=0;align=center;html=1;verticalAlign=top;shape=mxgraph.electrical.abstract.quantizer;" vertex="1" parent="1">
          <mxGeometry x="1200" y="807" width="52" height="46" as="geometry" />
        </mxCell>
        <mxCell id="8JsGSesCkg5EEvxzLTyf-57" value="" style="endArrow=classic;html=1;rounded=0;fontSize=12;startSize=8;endSize=8;curved=1;entryX=0.5;entryY=1;entryDx=0;entryDy=0;entryPerimeter=0;" edge="1" parent="1" source="8JsGSesCkg5EEvxzLTyf-53" target="8JsGSesCkg5EEvxzLTyf-40">
          <mxGeometry width="50" height="50" relative="1" as="geometry">
            <mxPoint x="950" y="970" as="sourcePoint" />
            <mxPoint x="720" y="770" as="targetPoint" />
          </mxGeometry>
        </mxCell>
        <mxCell id="8JsGSesCkg5EEvxzLTyf-128" value="COS_F2" style="edgeLabel;html=1;align=center;verticalAlign=middle;resizable=0;points=[];fontSize=12;" vertex="1" connectable="0" parent="8JsGSesCkg5EEvxzLTyf-57">
          <mxGeometry x="-0.1889" relative="1" as="geometry">
            <mxPoint as="offset" />
          </mxGeometry>
        </mxCell>
        <mxCell id="8JsGSesCkg5EEvxzLTyf-58" value="" style="endArrow=classic;html=1;rounded=0;fontSize=12;startSize=8;endSize=8;curved=1;exitX=0.5;exitY=1;exitDx=0;exitDy=0;exitPerimeter=0;entryX=0.5;entryY=0;entryDx=0;entryDy=0;" edge="1" parent="1" source="8JsGSesCkg5EEvxzLTyf-53" target="8JsGSesCkg5EEvxzLTyf-64">
          <mxGeometry width="50" height="50" relative="1" as="geometry">
            <mxPoint x="950" y="970" as="sourcePoint" />
            <mxPoint x="720" y="880" as="targetPoint" />
          </mxGeometry>
        </mxCell>
        <mxCell id="8JsGSesCkg5EEvxzLTyf-59" value="" style="endArrow=classic;html=1;rounded=0;fontSize=12;startSize=8;endSize=8;curved=1;exitX=0;exitY=0.5;exitDx=0;exitDy=0;exitPerimeter=0;" edge="1" parent="1" source="8JsGSesCkg5EEvxzLTyf-63" target="8JsGSesCkg5EEvxzLTyf-53">
          <mxGeometry width="50" height="50" relative="1" as="geometry">
            <mxPoint x="800" y="830" as="sourcePoint" />
            <mxPoint x="1000" y="920" as="targetPoint" />
          </mxGeometry>
        </mxCell>
        <mxCell id="8JsGSesCkg5EEvxzLTyf-60" value="" style="endArrow=classic;html=1;rounded=0;fontSize=12;startSize=8;endSize=8;curved=1;exitX=0;exitY=0.84;exitDx=0;exitDy=0;entryX=1;entryY=0.5;entryDx=0;entryDy=0;entryPerimeter=0;" edge="1" parent="1" source="8JsGSesCkg5EEvxzLTyf-54" target="8JsGSesCkg5EEvxzLTyf-63">
          <mxGeometry width="50" height="50" relative="1" as="geometry">
            <mxPoint x="950" y="970" as="sourcePoint" />
            <mxPoint x="852" y="830" as="targetPoint" />
          </mxGeometry>
        </mxCell>
        <mxCell id="8JsGSesCkg5EEvxzLTyf-61" value="" style="endArrow=none;html=1;rounded=0;fontSize=12;startSize=8;endSize=8;curved=1;exitX=0;exitY=0.5;exitDx=0;exitDy=0;exitPerimeter=0;entryX=1;entryY=0.84;entryDx=0;entryDy=0;endFill=0;" edge="1" parent="1" source="8JsGSesCkg5EEvxzLTyf-55" target="8JsGSesCkg5EEvxzLTyf-54">
          <mxGeometry width="50" height="50" relative="1" as="geometry">
            <mxPoint x="950" y="970" as="sourcePoint" />
            <mxPoint x="1000" y="920" as="targetPoint" />
          </mxGeometry>
        </mxCell>
        <mxCell id="8JsGSesCkg5EEvxzLTyf-62" value="" style="endArrow=classic;html=1;rounded=0;fontSize=12;startSize=8;endSize=8;curved=1;entryX=1;entryY=0.5;entryDx=0;entryDy=0;entryPerimeter=0;" edge="1" parent="1" source="8JsGSesCkg5EEvxzLTyf-56" target="8JsGSesCkg5EEvxzLTyf-55">
          <mxGeometry width="50" height="50" relative="1" as="geometry">
            <mxPoint x="950" y="970" as="sourcePoint" />
            <mxPoint x="1000" y="920" as="targetPoint" />
          </mxGeometry>
        </mxCell>
        <mxCell id="8JsGSesCkg5EEvxzLTyf-63" value="" style="verticalLabelPosition=bottom;shadow=0;dashed=0;align=center;html=1;verticalAlign=top;shape=mxgraph.electrical.abstract.filter;" vertex="1" parent="1">
          <mxGeometry x="801" y="807" width="52" height="46" as="geometry" />
        </mxCell>
        <mxCell id="8JsGSesCkg5EEvxzLTyf-64" value="90Â°" style="whiteSpace=wrap;html=1;aspect=fixed;" vertex="1" parent="1">
          <mxGeometry x="700" y="880" width="40" height="40" as="geometry" />
        </mxCell>
        <mxCell id="8JsGSesCkg5EEvxzLTyf-65" value="" style="verticalLabelPosition=bottom;shadow=0;dashed=0;align=center;html=1;verticalAlign=top;shape=mxgraph.electrical.abstract.multiplier;" vertex="1" parent="1">
          <mxGeometry x="695" y="960" width="50" height="50" as="geometry" />
        </mxCell>
        <mxCell id="8JsGSesCkg5EEvxzLTyf-66" value="" style="verticalLabelPosition=bottom;shadow=0;dashed=0;align=center;html=1;verticalAlign=top;shape=mxgraph.electrical.abstract.integrator;" vertex="1" parent="1">
          <mxGeometry x="800" y="960" width="50" height="50" as="geometry" />
        </mxCell>
        <mxCell id="8JsGSesCkg5EEvxzLTyf-67" value="" style="html=1;shape=mxgraph.electrical.electro-mechanical.switchDisconnector;aspect=fixed;elSwitchState=off;" vertex="1" parent="1">
          <mxGeometry x="880" y="968" width="75" height="20" as="geometry" />
        </mxCell>
        <mxCell id="8JsGSesCkg5EEvxzLTyf-68" value="T" style="whiteSpace=wrap;html=1;aspect=fixed;" vertex="1" parent="1">
          <mxGeometry x="1000" y="965" width="40" height="40" as="geometry" />
        </mxCell>
        <mxCell id="8JsGSesCkg5EEvxzLTyf-69" value="" style="endArrow=classic;html=1;rounded=0;fontSize=12;startSize=8;endSize=8;curved=1;" edge="1" parent="1" source="8JsGSesCkg5EEvxzLTyf-64" target="8JsGSesCkg5EEvxzLTyf-65">
          <mxGeometry width="50" height="50" relative="1" as="geometry">
            <mxPoint x="955" y="1350" as="sourcePoint" />
            <mxPoint x="725" y="1100" as="targetPoint" />
            <Array as="points" />
          </mxGeometry>
        </mxCell>
        <mxCell id="8JsGSesCkg5EEvxzLTyf-130" value="SIN_F2" style="edgeLabel;html=1;align=center;verticalAlign=middle;resizable=0;points=[];fontSize=12;" vertex="1" connectable="0" parent="8JsGSesCkg5EEvxzLTyf-69">
          <mxGeometry x="-0.1333" relative="1" as="geometry">
            <mxPoint as="offset" />
          </mxGeometry>
        </mxCell>
        <mxCell id="8JsGSesCkg5EEvxzLTyf-70" value="" style="endArrow=classic;html=1;rounded=0;fontSize=12;startSize=8;endSize=8;curved=1;entryX=0;entryY=0.5;entryDx=0;entryDy=0;entryPerimeter=0;exitX=1;exitY=0.5;exitDx=0;exitDy=0;exitPerimeter=0;" edge="1" parent="1" source="8JsGSesCkg5EEvxzLTyf-65" target="8JsGSesCkg5EEvxzLTyf-66">
          <mxGeometry width="50" height="50" relative="1" as="geometry">
            <mxPoint x="740" y="985" as="sourcePoint" />
            <mxPoint x="787" y="984.5" as="targetPoint" />
          </mxGeometry>
        </mxCell>
        <mxCell id="8JsGSesCkg5EEvxzLTyf-71" value="" style="endArrow=none;html=1;rounded=0;fontSize=12;startSize=8;endSize=8;curved=1;entryX=0;entryY=0.84;entryDx=0;entryDy=0;endFill=0;" edge="1" parent="1" source="8JsGSesCkg5EEvxzLTyf-66" target="8JsGSesCkg5EEvxzLTyf-67">
          <mxGeometry width="50" height="50" relative="1" as="geometry">
            <mxPoint x="950" y="1280" as="sourcePoint" />
            <mxPoint x="1000" y="1230" as="targetPoint" />
          </mxGeometry>
        </mxCell>
        <mxCell id="8JsGSesCkg5EEvxzLTyf-72" value="" style="endArrow=classic;html=1;rounded=0;fontSize=12;startSize=8;endSize=8;curved=1;exitX=1;exitY=0.84;exitDx=0;exitDy=0;" edge="1" parent="1" source="8JsGSesCkg5EEvxzLTyf-67" target="8JsGSesCkg5EEvxzLTyf-68">
          <mxGeometry width="50" height="50" relative="1" as="geometry">
            <mxPoint x="950" y="1280" as="sourcePoint" />
            <mxPoint x="1000" y="1230" as="targetPoint" />
          </mxGeometry>
        </mxCell>
        <mxCell id="8JsGSesCkg5EEvxzLTyf-75" value="" style="edgeStyle=segmentEdgeStyle;endArrow=classic;html=1;curved=0;rounded=0;endSize=8;startSize=8;fontSize=12;exitX=1;exitY=0.5;exitDx=0;exitDy=0;entryX=0.5;entryY=1;entryDx=0;entryDy=0;entryPerimeter=0;" edge="1" parent="1" source="8JsGSesCkg5EEvxzLTyf-68" target="8JsGSesCkg5EEvxzLTyf-55">
          <mxGeometry width="50" height="50" relative="1" as="geometry">
            <mxPoint x="1150" y="940" as="sourcePoint" />
            <mxPoint x="1200" y="890" as="targetPoint" />
          </mxGeometry>
        </mxCell>
        <mxCell id="8JsGSesCkg5EEvxzLTyf-83" value="ADC" style="text;strokeColor=none;fillColor=none;html=1;align=center;verticalAlign=middle;whiteSpace=wrap;rounded=0;fontSize=16;" vertex="1" parent="1">
          <mxGeometry x="490" y="624.5" width="60" height="30" as="geometry" />
        </mxCell>
        <mxCell id="8JsGSesCkg5EEvxzLTyf-85" value="" style="edgeStyle=elbowEdgeStyle;endArrow=classic;html=1;rounded=1;endSize=8;startSize=8;fontSize=12;exitX=0;exitY=0.5;exitDx=0;exitDy=0;exitPerimeter=0;entryX=0;entryY=0.5;entryDx=0;entryDy=0;entryPerimeter=0;curved=0;strokeWidth=1;" edge="1" parent="1" source="8JsGSesCkg5EEvxzLTyf-1" target="8JsGSesCkg5EEvxzLTyf-6">
          <mxGeometry width="50" height="50" relative="1" as="geometry">
            <mxPoint x="580" y="610" as="sourcePoint" />
            <mxPoint x="620" y="290" as="targetPoint" />
          </mxGeometry>
        </mxCell>
        <mxCell id="8JsGSesCkg5EEvxzLTyf-86" value="" style="edgeStyle=elbowEdgeStyle;endArrow=classic;html=1;rounded=1;endSize=8;startSize=8;fontSize=12;exitX=0;exitY=0.5;exitDx=0;exitDy=0;exitPerimeter=0;curved=0;strokeWidth=1;entryX=0;entryY=0.5;entryDx=0;entryDy=0;entryPerimeter=0;" edge="1" parent="1" source="8JsGSesCkg5EEvxzLTyf-1" target="8JsGSesCkg5EEvxzLTyf-3">
          <mxGeometry width="50" height="50" relative="1" as="geometry">
            <mxPoint x="570" y="650" as="sourcePoint" />
            <mxPoint x="600" y="510" as="targetPoint" />
          </mxGeometry>
        </mxCell>
        <mxCell id="8JsGSesCkg5EEvxzLTyf-87" value="" style="edgeStyle=elbowEdgeStyle;endArrow=classic;html=1;rounded=1;endSize=8;startSize=8;fontSize=12;exitX=0;exitY=0.5;exitDx=0;exitDy=0;exitPerimeter=0;curved=0;strokeWidth=1;entryX=0;entryY=0.5;entryDx=0;entryDy=0;entryPerimeter=0;" edge="1" parent="1" source="8JsGSesCkg5EEvxzLTyf-1" target="8JsGSesCkg5EEvxzLTyf-40">
          <mxGeometry width="50" height="50" relative="1" as="geometry">
            <mxPoint x="580" y="660" as="sourcePoint" />
            <mxPoint x="630" y="720" as="targetPoint" />
          </mxGeometry>
        </mxCell>
        <mxCell id="8JsGSesCkg5EEvxzLTyf-88" value="" style="edgeStyle=elbowEdgeStyle;endArrow=classic;html=1;rounded=1;endSize=8;startSize=8;fontSize=12;exitX=0;exitY=0.5;exitDx=0;exitDy=0;exitPerimeter=0;curved=0;strokeWidth=1;entryX=0;entryY=0.5;entryDx=0;entryDy=0;entryPerimeter=0;" edge="1" parent="1" source="8JsGSesCkg5EEvxzLTyf-1" target="8JsGSesCkg5EEvxzLTyf-65">
          <mxGeometry width="50" height="50" relative="1" as="geometry">
            <mxPoint x="590" y="670" as="sourcePoint" />
            <mxPoint x="590" y="750" as="targetPoint" />
          </mxGeometry>
        </mxCell>
        <mxCell id="8JsGSesCkg5EEvxzLTyf-89" value="" style="endArrow=classic;html=1;rounded=0;fontSize=12;startSize=8;endSize=8;curved=1;entryX=1;entryY=0.5;entryDx=0;entryDy=0;entryPerimeter=0;strokeWidth=1;" edge="1" parent="1" target="8JsGSesCkg5EEvxzLTyf-1">
          <mxGeometry width="50" height="50" relative="1" as="geometry">
            <mxPoint x="400" y="639" as="sourcePoint" />
            <mxPoint x="710" y="730" as="targetPoint" />
          </mxGeometry>
        </mxCell>
        <mxCell id="8JsGSesCkg5EEvxzLTyf-90" value="Costas Loop&lt;div&gt;F1&lt;/div&gt;" style="text;strokeColor=none;fillColor=none;html=1;align=center;verticalAlign=middle;whiteSpace=wrap;rounded=0;fontSize=16;" vertex="1" parent="1">
          <mxGeometry x="1145" y="238" width="110" height="30" as="geometry" />
        </mxCell>
        <mxCell id="8JsGSesCkg5EEvxzLTyf-91" value="Costas Loop&lt;div&gt;F2&lt;/div&gt;" style="text;strokeColor=none;fillColor=none;html=1;align=center;verticalAlign=middle;whiteSpace=wrap;rounded=0;fontSize=16;" vertex="1" parent="1">
          <mxGeometry x="1160" y="1000" width="110" height="30" as="geometry" />
        </mxCell>
        <mxCell id="8JsGSesCkg5EEvxzLTyf-92" value="T" style="whiteSpace=wrap;html=1;aspect=fixed;" vertex="1" parent="1">
          <mxGeometry x="1525" y="539.5" width="40" height="40" as="geometry" />
        </mxCell>
        <mxCell id="8JsGSesCkg5EEvxzLTyf-93" value="T" style="whiteSpace=wrap;html=1;aspect=fixed;" vertex="1" parent="1">
          <mxGeometry x="1525" y="695" width="40" height="40" as="geometry" />
        </mxCell>
        <mxCell id="8JsGSesCkg5EEvxzLTyf-95" value="" style="endArrow=classic;html=1;rounded=0;fontSize=12;startSize=8;endSize=8;curved=1;entryX=0.5;entryY=1;entryDx=0;entryDy=0;startArrow=oval;startFill=1;" edge="1" parent="1" target="8JsGSesCkg5EEvxzLTyf-16">
          <mxGeometry width="50" height="50" relative="1" as="geometry">
            <mxPoint x="1226" y="560" as="sourcePoint" />
            <mxPoint x="1350" y="640" as="targetPoint" />
          </mxGeometry>
        </mxCell>
        <mxCell id="8JsGSesCkg5EEvxzLTyf-97" value="" style="endArrow=classic;html=1;rounded=0;fontSize=12;startSize=8;endSize=8;curved=1;entryX=0.5;entryY=0;entryDx=0;entryDy=0;entryPerimeter=0;" edge="1" parent="1" target="8JsGSesCkg5EEvxzLTyf-56">
          <mxGeometry width="50" height="50" relative="1" as="geometry">
            <mxPoint x="1226" y="780" as="sourcePoint" />
            <mxPoint x="1290" y="610" as="targetPoint" />
          </mxGeometry>
        </mxCell>
        <mxCell id="8JsGSesCkg5EEvxzLTyf-100" value="" style="edgeStyle=segmentEdgeStyle;endArrow=classic;html=1;curved=0;rounded=0;endSize=8;startSize=8;fontSize=12;exitDx=0;exitDy=0;entryX=0.5;entryY=0;entryDx=0;entryDy=0;" edge="1" parent="1" source="8JsGSesCkg5EEvxzLTyf-101" target="8JsGSesCkg5EEvxzLTyf-43">
          <mxGeometry width="50" height="50" relative="1" as="geometry">
            <mxPoint x="1320" y="650" as="sourcePoint" />
            <mxPoint x="1290" y="610" as="targetPoint" />
          </mxGeometry>
        </mxCell>
        <mxCell id="8JsGSesCkg5EEvxzLTyf-102" value="" style="edgeStyle=segmentEdgeStyle;endArrow=none;html=1;curved=0;rounded=0;endSize=8;startSize=8;fontSize=12;exitX=1;exitY=0.84;exitDx=0;exitDy=0;entryDx=0;entryDy=0;endFill=0;" edge="1" parent="1" source="8JsGSesCkg5EEvxzLTyf-42" target="8JsGSesCkg5EEvxzLTyf-101">
          <mxGeometry width="50" height="50" relative="1" as="geometry">
            <mxPoint x="955" y="715" as="sourcePoint" />
            <mxPoint x="1226" y="740" as="targetPoint" />
          </mxGeometry>
        </mxCell>
        <mxCell id="8JsGSesCkg5EEvxzLTyf-101" value="" style="shape=waypoint;sketch=0;fillStyle=solid;size=6;pointerEvents=1;points=[];fillColor=none;resizable=0;rotatable=0;perimeter=centerPerimeter;snapToPoint=1;" vertex="1" parent="1">
          <mxGeometry x="1216" y="705" width="20" height="20" as="geometry" />
        </mxCell>
        <mxCell id="8JsGSesCkg5EEvxzLTyf-103" value="" style="endArrow=classic;html=1;rounded=0;fontSize=12;startSize=8;endSize=8;curved=1;exitX=0.681;exitY=0.607;exitDx=0;exitDy=0;exitPerimeter=0;entryX=0;entryY=0.5;entryDx=0;entryDy=0;entryPerimeter=0;" edge="1" parent="1" source="8JsGSesCkg5EEvxzLTyf-101" target="8JsGSesCkg5EEvxzLTyf-108">
          <mxGeometry width="50" height="50" relative="1" as="geometry">
            <mxPoint x="1300" y="780" as="sourcePoint" />
            <mxPoint x="1350" y="730" as="targetPoint" />
          </mxGeometry>
        </mxCell>
        <mxCell id="8JsGSesCkg5EEvxzLTyf-104" value="" style="verticalLabelPosition=bottom;shadow=0;dashed=0;align=center;html=1;verticalAlign=top;shape=mxgraph.electrical.abstract.summation_point;" vertex="1" parent="1">
          <mxGeometry x="1645" y="690" width="50" height="50" as="geometry" />
        </mxCell>
        <mxCell id="8JsGSesCkg5EEvxzLTyf-108" value="" style="verticalLabelPosition=bottom;shadow=0;dashed=0;align=center;html=1;verticalAlign=top;shape=mxgraph.electrical.abstract.multiplier;" vertex="1" parent="1">
          <mxGeometry x="1395" y="690" width="50" height="50" as="geometry" />
        </mxCell>
        <mxCell id="8JsGSesCkg5EEvxzLTyf-109" value="" style="endArrow=classic;html=1;rounded=0;fontSize=12;startSize=8;endSize=8;curved=1;exitX=1;exitY=0.5;exitDx=0;exitDy=0;exitPerimeter=0;entryX=0;entryY=0.5;entryDx=0;entryDy=0;" edge="1" parent="1" source="8JsGSesCkg5EEvxzLTyf-108" target="8JsGSesCkg5EEvxzLTyf-93">
          <mxGeometry width="50" height="50" relative="1" as="geometry">
            <mxPoint x="1560" y="770" as="sourcePoint" />
            <mxPoint x="1530" y="720" as="targetPoint" />
          </mxGeometry>
        </mxCell>
        <mxCell id="8JsGSesCkg5EEvxzLTyf-110" value="" style="endArrow=classic;html=1;rounded=0;fontSize=12;startSize=8;endSize=8;curved=1;exitX=1;exitY=0.5;exitDx=0;exitDy=0;entryX=0;entryY=0.5;entryDx=0;entryDy=0;entryPerimeter=0;" edge="1" parent="1" source="8JsGSesCkg5EEvxzLTyf-93" target="8JsGSesCkg5EEvxzLTyf-104">
          <mxGeometry width="50" height="50" relative="1" as="geometry">
            <mxPoint x="1560" y="770" as="sourcePoint" />
            <mxPoint x="1610" y="720" as="targetPoint" />
          </mxGeometry>
        </mxCell>
        <mxCell id="8JsGSesCkg5EEvxzLTyf-111" value="" style="endArrow=classic;html=1;rounded=0;fontSize=12;startSize=8;endSize=8;curved=1;exitX=1;exitY=0.5;exitDx=0;exitDy=0;entryX=0;entryY=0.5;entryDx=0;entryDy=0;entryPerimeter=0;" edge="1" parent="1" source="8JsGSesCkg5EEvxzLTyf-92" target="8JsGSesCkg5EEvxzLTyf-17">
          <mxGeometry width="50" height="50" relative="1" as="geometry">
            <mxPoint x="1685" y="770" as="sourcePoint" />
            <mxPoint x="1735" y="720" as="targetPoint" />
          </mxGeometry>
        </mxCell>
        <mxCell id="8JsGSesCkg5EEvxzLTyf-112" value="" style="edgeStyle=segmentEdgeStyle;endArrow=classic;html=1;curved=0;rounded=0;endSize=8;startSize=8;fontSize=12;entryX=0.5;entryY=1;entryDx=0;entryDy=0;entryPerimeter=0;exitX=1;exitY=0.5;exitDx=0;exitDy=0;exitPerimeter=0;" edge="1" parent="1" source="8JsGSesCkg5EEvxzLTyf-104" target="8JsGSesCkg5EEvxzLTyf-18">
          <mxGeometry width="50" height="50" relative="1" as="geometry">
            <mxPoint x="1560" y="770" as="sourcePoint" />
            <mxPoint x="1610" y="720" as="targetPoint" />
          </mxGeometry>
        </mxCell>
        <mxCell id="8JsGSesCkg5EEvxzLTyf-114" value="" style="edgeStyle=elbowEdgeStyle;elbow=vertical;endArrow=classic;html=1;rounded=0;endSize=8;startSize=8;fontSize=12;entryX=0.5;entryY=1;entryDx=0;entryDy=0;entryPerimeter=0;startArrow=oval;startFill=1;" edge="1" parent="1" target="8JsGSesCkg5EEvxzLTyf-17">
          <mxGeometry width="50" height="50" relative="1" as="geometry">
            <mxPoint x="1480" y="560" as="sourcePoint" />
            <mxPoint x="1615" y="600" as="targetPoint" />
            <Array as="points">
              <mxPoint x="1580" y="610" />
            </Array>
          </mxGeometry>
        </mxCell>
        <mxCell id="8JsGSesCkg5EEvxzLTyf-115" value="" style="edgeStyle=elbowEdgeStyle;elbow=vertical;endArrow=classic;html=1;rounded=0;endSize=8;startSize=8;fontSize=12;entryX=0.5;entryY=0;entryDx=0;entryDy=0;entryPerimeter=0;startArrow=oval;startFill=1;" edge="1" parent="1" target="8JsGSesCkg5EEvxzLTyf-104">
          <mxGeometry width="50" height="50" relative="1" as="geometry">
            <mxPoint x="1480" y="715" as="sourcePoint" />
            <mxPoint x="1670" y="649.5" as="targetPoint" />
            <Array as="points">
              <mxPoint x="1580" y="670" />
            </Array>
          </mxGeometry>
        </mxCell>
        <mxCell id="8JsGSesCkg5EEvxzLTyf-116" value="-" style="text;strokeColor=none;fillColor=none;html=1;align=center;verticalAlign=middle;whiteSpace=wrap;rounded=0;fontSize=24;" vertex="1" parent="1">
          <mxGeometry x="1745" y="573.5" width="60" height="30" as="geometry" />
        </mxCell>
        <mxCell id="8JsGSesCkg5EEvxzLTyf-117" value="" style="endArrow=none;dashed=1;html=1;rounded=0;fontSize=12;startSize=8;endSize=8;curved=1;exitX=0.444;exitY=0.457;exitDx=0;exitDy=0;exitPerimeter=0;startArrow=none;startFill=0;endFill=0;entryX=0.454;entryY=0.569;entryDx=0;entryDy=0;entryPerimeter=0;dashPattern=8 8;" edge="1" parent="1" source="8JsGSesCkg5EEvxzLTyf-67" target="8JsGSesCkg5EEvxzLTyf-12">
          <mxGeometry width="50" height="50" relative="1" as="geometry">
            <mxPoint x="790" y="880" as="sourcePoint" />
            <mxPoint x="913" y="640" as="targetPoint" />
          </mxGeometry>
        </mxCell>
        <mxCell id="8JsGSesCkg5EEvxzLTyf-118" value="Tclk" style="edgeLabel;html=1;align=center;verticalAlign=middle;resizable=0;points=[];fontSize=12;" vertex="1" connectable="0" parent="8JsGSesCkg5EEvxzLTyf-117">
          <mxGeometry x="-0.0297" relative="1" as="geometry">
            <mxPoint as="offset" />
          </mxGeometry>
        </mxCell>
        <mxCell id="8JsGSesCkg5EEvxzLTyf-119" value="a[n]" style="text;strokeColor=none;fillColor=none;html=1;align=center;verticalAlign=middle;whiteSpace=wrap;rounded=0;fontSize=16;" vertex="1" parent="1">
          <mxGeometry x="972.5" y="435" width="60" height="30" as="geometry" />
        </mxCell>
        <mxCell id="8JsGSesCkg5EEvxzLTyf-120" value="a[n]" style="text;strokeColor=none;fillColor=none;html=1;align=center;verticalAlign=middle;whiteSpace=wrap;rounded=0;fontSize=16;" vertex="1" parent="1">
          <mxGeometry x="972.5" y="825" width="60" height="30" as="geometry" />
        </mxCell>
        <mxCell id="8JsGSesCkg5EEvxzLTyf-121" value="" style="endArrow=classic;html=1;rounded=0;fontSize=12;startSize=8;endSize=8;curved=1;entryX=0.5;entryY=1;entryDx=0;entryDy=0;entryPerimeter=0;" edge="1" parent="1" target="8JsGSesCkg5EEvxzLTyf-108">
          <mxGeometry width="50" height="50" relative="1" as="geometry">
            <mxPoint x="1420" y="790" as="sourcePoint" />
            <mxPoint x="1120" y="810" as="targetPoint" />
          </mxGeometry>
        </mxCell>
        <mxCell id="8JsGSesCkg5EEvxzLTyf-122" value="c[n]" style="text;strokeColor=none;fillColor=none;html=1;align=center;verticalAlign=middle;whiteSpace=wrap;rounded=0;fontSize=16;" vertex="1" parent="1">
          <mxGeometry x="1390" y="783" width="60" height="30" as="geometry" />
        </mxCell>
        <mxCell id="8JsGSesCkg5EEvxzLTyf-125" value="" style="endArrow=classic;html=1;rounded=0;fontSize=12;startSize=8;endSize=8;curved=1;exitX=1;exitY=0.5;exitDx=0;exitDy=0;exitPerimeter=0;" edge="1" parent="1" source="8JsGSesCkg5EEvxzLTyf-37">
          <mxGeometry width="50" height="50" relative="1" as="geometry">
            <mxPoint x="1680" y="750" as="sourcePoint" />
            <mxPoint x="2080" y="560" as="targetPoint" />
          </mxGeometry>
        </mxCell>
        <mxCell id="8JsGSesCkg5EEvxzLTyf-126" value="a[n]" style="text;strokeColor=none;fillColor=none;html=1;align=center;verticalAlign=middle;whiteSpace=wrap;rounded=0;fontSize=16;" vertex="1" parent="1">
          <mxGeometry x="2070" y="544.5" width="60" height="30" as="geometry" />
        </mxCell>
        <mxCell id="8JsGSesCkg5EEvxzLTyf-127" value="Demodulator/Decoder" style="text;strokeColor=none;fillColor=none;html=1;align=center;verticalAlign=middle;whiteSpace=wrap;rounded=0;fontSize=16;" vertex="1" parent="1">
          <mxGeometry x="1827" y="735" width="110" height="30" as="geometry" />
        </mxCell>
        <mxCell id="8JsGSesCkg5EEvxzLTyf-133" value="s[n]" style="text;strokeColor=none;fillColor=none;html=1;align=center;verticalAlign=middle;whiteSpace=wrap;rounded=0;fontSize=16;" vertex="1" parent="1">
          <mxGeometry x="350" y="625" width="60" height="30" as="geometry" />
        </mxCell>
        <mxCell id="8JsGSesCkg5EEvxzLTyf-134" value="" style="verticalLabelPosition=bottom;shadow=0;dashed=0;align=center;html=1;verticalAlign=top;shape=mxgraph.electrical.abstract.multiplier;" vertex="1" parent="1">
          <mxGeometry x="1600" y="920" width="50" height="50" as="geometry" />
        </mxCell>
        <mxCell id="8JsGSesCkg5EEvxzLTyf-135" value="" style="verticalLabelPosition=bottom;shadow=0;dashed=0;align=center;html=1;verticalAlign=top;shape=mxgraph.electrical.abstract.multiplier;" vertex="1" parent="1">
          <mxGeometry x="1600" y="1060" width="50" height="50" as="geometry" />
        </mxCell>
        <mxCell id="8JsGSesCkg5EEvxzLTyf-138" value="" style="verticalLabelPosition=bottom;shadow=0;dashed=0;align=center;html=1;verticalAlign=top;shape=mxgraph.electrical.abstract.summation_point;" vertex="1" parent="1">
          <mxGeometry x="1704" y="990" width="50" height="50" as="geometry" />
        </mxCell>
        <mxCell id="8JsGSesCkg5EEvxzLTyf-141" value="" style="edgeStyle=segmentEdgeStyle;endArrow=classic;html=1;curved=0;rounded=0;endSize=8;startSize=8;fontSize=12;entryX=0.5;entryY=1;entryDx=0;entryDy=0;entryPerimeter=0;" edge="1" parent="1" target="8JsGSesCkg5EEvxzLTyf-134">
          <mxGeometry width="50" height="50" relative="1" as="geometry">
            <mxPoint x="1520" y="990" as="sourcePoint" />
            <mxPoint x="1670" y="1030" as="targetPoint" />
          </mxGeometry>
        </mxCell>
        <mxCell id="8JsGSesCkg5EEvxzLTyf-142" value="" style="edgeStyle=segmentEdgeStyle;endArrow=classic;html=1;curved=0;rounded=0;endSize=8;startSize=8;fontSize=12;entryX=0.5;entryY=0;entryDx=0;entryDy=0;entryPerimeter=0;" edge="1" parent="1" target="8JsGSesCkg5EEvxzLTyf-134">
          <mxGeometry width="50" height="50" relative="1" as="geometry">
            <mxPoint x="1520" y="900" as="sourcePoint" />
            <mxPoint x="1670" y="1030" as="targetPoint" />
          </mxGeometry>
        </mxCell>
        <mxCell id="8JsGSesCkg5EEvxzLTyf-143" value="" style="edgeStyle=segmentEdgeStyle;endArrow=classic;html=1;curved=0;rounded=0;endSize=8;startSize=8;fontSize=12;entryX=0.5;entryY=0;entryDx=0;entryDy=0;entryPerimeter=0;exitX=1;exitY=0.5;exitDx=0;exitDy=0;exitPerimeter=0;" edge="1" parent="1" source="8JsGSesCkg5EEvxzLTyf-134" target="8JsGSesCkg5EEvxzLTyf-138">
          <mxGeometry width="50" height="50" relative="1" as="geometry">
            <mxPoint x="1620" y="1120" as="sourcePoint" />
            <mxPoint x="1670" y="1070" as="targetPoint" />
          </mxGeometry>
        </mxCell>
        <mxCell id="8JsGSesCkg5EEvxzLTyf-144" value="" style="edgeStyle=segmentEdgeStyle;endArrow=classic;html=1;curved=0;rounded=0;endSize=8;startSize=8;fontSize=12;entryX=0.5;entryY=1;entryDx=0;entryDy=0;entryPerimeter=0;exitX=1;exitY=0.5;exitDx=0;exitDy=0;exitPerimeter=0;" edge="1" parent="1" source="8JsGSesCkg5EEvxzLTyf-135" target="8JsGSesCkg5EEvxzLTyf-138">
          <mxGeometry width="50" height="50" relative="1" as="geometry">
            <mxPoint x="1620" y="1120" as="sourcePoint" />
            <mxPoint x="1670" y="1070" as="targetPoint" />
          </mxGeometry>
        </mxCell>
        <mxCell id="8JsGSesCkg5EEvxzLTyf-145" value="" style="edgeStyle=segmentEdgeStyle;endArrow=classic;html=1;curved=0;rounded=0;endSize=8;startSize=8;fontSize=12;entryX=0.5;entryY=0;entryDx=0;entryDy=0;entryPerimeter=0;" edge="1" parent="1">
          <mxGeometry width="50" height="50" relative="1" as="geometry">
            <mxPoint x="1520" y="1040" as="sourcePoint" />
            <mxPoint x="1625" y="1060" as="targetPoint" />
          </mxGeometry>
        </mxCell>
        <mxCell id="8JsGSesCkg5EEvxzLTyf-146" value="" style="edgeStyle=segmentEdgeStyle;endArrow=classic;html=1;curved=0;rounded=0;endSize=8;startSize=8;fontSize=12;entryX=0.5;entryY=1;entryDx=0;entryDy=0;entryPerimeter=0;" edge="1" parent="1">
          <mxGeometry width="50" height="50" relative="1" as="geometry">
            <mxPoint x="1520" y="1130" as="sourcePoint" />
            <mxPoint x="1625" y="1110" as="targetPoint" />
          </mxGeometry>
        </mxCell>
        <mxCell id="8JsGSesCkg5EEvxzLTyf-147" value="" style="endArrow=classic;html=1;rounded=0;fontSize=12;startSize=8;endSize=8;curved=1;exitX=1;exitY=0.5;exitDx=0;exitDy=0;exitPerimeter=0;" edge="1" parent="1" source="8JsGSesCkg5EEvxzLTyf-138">
          <mxGeometry width="50" height="50" relative="1" as="geometry">
            <mxPoint x="1600" y="1070" as="sourcePoint" />
            <mxPoint x="1830" y="1015" as="targetPoint" />
          </mxGeometry>
        </mxCell>
        <mxCell id="8JsGSesCkg5EEvxzLTyf-148" value="COS_F1" style="text;strokeColor=none;fillColor=none;html=1;align=center;verticalAlign=middle;whiteSpace=wrap;rounded=0;fontSize=16;" vertex="1" parent="1">
          <mxGeometry x="1450" y="885" width="60" height="30" as="geometry" />
        </mxCell>
        <mxCell id="8JsGSesCkg5EEvxzLTyf-149" value="SIN_F2" style="text;strokeColor=none;fillColor=none;html=1;align=center;verticalAlign=middle;whiteSpace=wrap;rounded=0;fontSize=16;" vertex="1" parent="1">
          <mxGeometry x="1450" y="975" width="60" height="30" as="geometry" />
        </mxCell>
        <mxCell id="8JsGSesCkg5EEvxzLTyf-150" value="COS_F2" style="text;strokeColor=none;fillColor=none;html=1;align=center;verticalAlign=middle;whiteSpace=wrap;rounded=0;fontSize=16;" vertex="1" parent="1">
          <mxGeometry x="1450" y="1025" width="60" height="30" as="geometry" />
        </mxCell>
        <mxCell id="8JsGSesCkg5EEvxzLTyf-151" value="SIN_F1" style="text;strokeColor=none;fillColor=none;html=1;align=center;verticalAlign=middle;whiteSpace=wrap;rounded=0;fontSize=16;" vertex="1" parent="1">
          <mxGeometry x="1450" y="1115" width="60" height="30" as="geometry" />
        </mxCell>
        <mxCell id="8JsGSesCkg5EEvxzLTyf-152" value="Tclk" style="text;strokeColor=none;fillColor=none;html=1;align=center;verticalAlign=middle;whiteSpace=wrap;rounded=0;fontSize=16;" vertex="1" parent="1">
          <mxGeometry x="1830" y="1000" width="60" height="30" as="geometry" />
        </mxCell>
        <mxCell id="8JsGSesCkg5EEvxzLTyf-153" value="-" style="text;strokeColor=none;fillColor=none;html=1;align=center;verticalAlign=middle;whiteSpace=wrap;rounded=0;fontSize=24;" vertex="1" parent="1">
          <mxGeometry x="1680" y="960" width="60" height="30" as="geometry" />
        </mxCell>
        <mxCell id="8JsGSesCkg5EEvxzLTyf-154" value="" style="verticalLabelPosition=bottom;shadow=0;dashed=0;align=center;html=1;verticalAlign=top;shape=mxgraph.electrical.abstract.multiplier;" vertex="1" parent="1">
          <mxGeometry x="1600" y="1195" width="50" height="50" as="geometry" />
        </mxCell>
        <mxCell id="8JsGSesCkg5EEvxzLTyf-155" value="" style="verticalLabelPosition=bottom;shadow=0;dashed=0;align=center;html=1;verticalAlign=top;shape=mxgraph.electrical.abstract.multiplier;" vertex="1" parent="1">
          <mxGeometry x="1600" y="1335" width="50" height="50" as="geometry" />
        </mxCell>
        <mxCell id="8JsGSesCkg5EEvxzLTyf-156" value="" style="verticalLabelPosition=bottom;shadow=0;dashed=0;align=center;html=1;verticalAlign=top;shape=mxgraph.electrical.abstract.summation_point;" vertex="1" parent="1">
          <mxGeometry x="1704" y="1265" width="50" height="50" as="geometry" />
        </mxCell>
        <mxCell id="8JsGSesCkg5EEvxzLTyf-157" value="" style="edgeStyle=segmentEdgeStyle;endArrow=classic;html=1;curved=0;rounded=0;endSize=8;startSize=8;fontSize=12;entryX=0.5;entryY=1;entryDx=0;entryDy=0;entryPerimeter=0;" edge="1" parent="1" target="8JsGSesCkg5EEvxzLTyf-154">
          <mxGeometry width="50" height="50" relative="1" as="geometry">
            <mxPoint x="1520" y="1265" as="sourcePoint" />
            <mxPoint x="1670" y="1305" as="targetPoint" />
          </mxGeometry>
        </mxCell>
        <mxCell id="8JsGSesCkg5EEvxzLTyf-158" value="" style="edgeStyle=segmentEdgeStyle;endArrow=classic;html=1;curved=0;rounded=0;endSize=8;startSize=8;fontSize=12;entryX=0.5;entryY=0;entryDx=0;entryDy=0;entryPerimeter=0;" edge="1" parent="1" target="8JsGSesCkg5EEvxzLTyf-154">
          <mxGeometry width="50" height="50" relative="1" as="geometry">
            <mxPoint x="1520" y="1175" as="sourcePoint" />
            <mxPoint x="1670" y="1305" as="targetPoint" />
          </mxGeometry>
        </mxCell>
        <mxCell id="8JsGSesCkg5EEvxzLTyf-159" value="" style="edgeStyle=segmentEdgeStyle;endArrow=classic;html=1;curved=0;rounded=0;endSize=8;startSize=8;fontSize=12;entryX=0.5;entryY=0;entryDx=0;entryDy=0;entryPerimeter=0;exitX=1;exitY=0.5;exitDx=0;exitDy=0;exitPerimeter=0;" edge="1" parent="1" source="8JsGSesCkg5EEvxzLTyf-154" target="8JsGSesCkg5EEvxzLTyf-156">
          <mxGeometry width="50" height="50" relative="1" as="geometry">
            <mxPoint x="1620" y="1395" as="sourcePoint" />
            <mxPoint x="1670" y="1345" as="targetPoint" />
          </mxGeometry>
        </mxCell>
        <mxCell id="8JsGSesCkg5EEvxzLTyf-160" value="" style="edgeStyle=segmentEdgeStyle;endArrow=classic;html=1;curved=0;rounded=0;endSize=8;startSize=8;fontSize=12;entryX=0.5;entryY=1;entryDx=0;entryDy=0;entryPerimeter=0;exitX=1;exitY=0.5;exitDx=0;exitDy=0;exitPerimeter=0;" edge="1" parent="1" source="8JsGSesCkg5EEvxzLTyf-155" target="8JsGSesCkg5EEvxzLTyf-156">
          <mxGeometry width="50" height="50" relative="1" as="geometry">
            <mxPoint x="1620" y="1395" as="sourcePoint" />
            <mxPoint x="1670" y="1345" as="targetPoint" />
          </mxGeometry>
        </mxCell>
        <mxCell id="8JsGSesCkg5EEvxzLTyf-161" value="" style="edgeStyle=segmentEdgeStyle;endArrow=classic;html=1;curved=0;rounded=0;endSize=8;startSize=8;fontSize=12;entryX=0.5;entryY=0;entryDx=0;entryDy=0;entryPerimeter=0;" edge="1" parent="1">
          <mxGeometry width="50" height="50" relative="1" as="geometry">
            <mxPoint x="1520" y="1315" as="sourcePoint" />
            <mxPoint x="1625" y="1335" as="targetPoint" />
          </mxGeometry>
        </mxCell>
        <mxCell id="8JsGSesCkg5EEvxzLTyf-162" value="" style="edgeStyle=segmentEdgeStyle;endArrow=classic;html=1;curved=0;rounded=0;endSize=8;startSize=8;fontSize=12;entryX=0.5;entryY=1;entryDx=0;entryDy=0;entryPerimeter=0;" edge="1" parent="1">
          <mxGeometry width="50" height="50" relative="1" as="geometry">
            <mxPoint x="1520" y="1405" as="sourcePoint" />
            <mxPoint x="1625" y="1385" as="targetPoint" />
          </mxGeometry>
        </mxCell>
        <mxCell id="8JsGSesCkg5EEvxzLTyf-163" value="" style="endArrow=classic;html=1;rounded=0;fontSize=12;startSize=8;endSize=8;curved=1;exitX=1;exitY=0.5;exitDx=0;exitDy=0;exitPerimeter=0;" edge="1" parent="1" source="8JsGSesCkg5EEvxzLTyf-156">
          <mxGeometry width="50" height="50" relative="1" as="geometry">
            <mxPoint x="1600" y="1345" as="sourcePoint" />
            <mxPoint x="1830" y="1290" as="targetPoint" />
          </mxGeometry>
        </mxCell>
        <mxCell id="8JsGSesCkg5EEvxzLTyf-164" value="COS_F1" style="text;strokeColor=none;fillColor=none;html=1;align=center;verticalAlign=middle;whiteSpace=wrap;rounded=0;fontSize=16;" vertex="1" parent="1">
          <mxGeometry x="1450" y="1160" width="60" height="30" as="geometry" />
        </mxCell>
        <mxCell id="8JsGSesCkg5EEvxzLTyf-165" value="SIN_F2" style="text;strokeColor=none;fillColor=none;html=1;align=center;verticalAlign=middle;whiteSpace=wrap;rounded=0;fontSize=16;" vertex="1" parent="1">
          <mxGeometry x="1450" y="1250" width="60" height="30" as="geometry" />
        </mxCell>
        <mxCell id="8JsGSesCkg5EEvxzLTyf-166" value="COS_F2" style="text;strokeColor=none;fillColor=none;html=1;align=center;verticalAlign=middle;whiteSpace=wrap;rounded=0;fontSize=16;" vertex="1" parent="1">
          <mxGeometry x="1450" y="1300" width="60" height="30" as="geometry" />
        </mxCell>
        <mxCell id="8JsGSesCkg5EEvxzLTyf-167" value="SIN_F1" style="text;strokeColor=none;fillColor=none;html=1;align=center;verticalAlign=middle;whiteSpace=wrap;rounded=0;fontSize=16;" vertex="1" parent="1">
          <mxGeometry x="1450" y="1390" width="60" height="30" as="geometry" />
        </mxCell>
        <mxCell id="8JsGSesCkg5EEvxzLTyf-168" value="c[n]" style="text;strokeColor=none;fillColor=none;html=1;align=center;verticalAlign=middle;whiteSpace=wrap;rounded=0;fontSize=16;" vertex="1" parent="1">
          <mxGeometry x="1830" y="1275" width="60" height="30" as="geometry" />
        </mxCell>
        <mxCell id="8JsGSesCkg5EEvxzLTyf-169" value="-" style="text;strokeColor=none;fillColor=none;html=1;align=center;verticalAlign=middle;whiteSpace=wrap;rounded=0;fontSize=24;" vertex="1" parent="1">
          <mxGeometry x="1680" y="1305" width="60" height="30" as="geometry" />
        </mxCell>
        <mxCell id="8JsGSesCkg5EEvxzLTyf-172" value="Symbol Clock Recovery" style="text;strokeColor=none;fillColor=none;html=1;align=center;verticalAlign=middle;whiteSpace=wrap;rounded=0;fontSize=16;" vertex="1" parent="1">
          <mxGeometry x="1655" y="870" width="110" height="30" as="geometry" />
        </mxCell>
      </root>
    </mxGraphModel>
  </diagram>
</mxfile>
